<svg xmlns="http://www.w3.org/2000/svg" xmlns:xlink="http://www.w3.org/1999/xlink" width="201" zoomAndPan="magnify" viewBox="0 0 150.75 151.500001" height="202" preserveAspectRatio="xMidYMid meet" version="1.0"><defs><g/><clipPath id="3b9e7bf1a9"><path d="M 2.894531 2.859375 L 147.121094 2.859375 L 147.121094 147.085938 L 2.894531 147.085938 Z M 2.894531 2.859375 " clip-rule="nonzero"/></clipPath><clipPath id="b080d02a9d"><path d="M 75.007812 2.859375 C 35.183594 2.859375 2.894531 35.148438 2.894531 74.972656 C 2.894531 114.800781 35.183594 147.085938 75.007812 147.085938 C 114.835938 147.085938 147.121094 114.800781 147.121094 74.972656 C 147.121094 35.148438 114.835938 2.859375 75.007812 2.859375 Z M 75.007812 2.859375 " clip-rule="nonzero"/></clipPath><clipPath id="b3156eb9e3"><path d="M 20.523438 20.539062 L 129.398438 20.539062 L 129.398438 129.410156 L 20.523438 129.410156 Z M 20.523438 20.539062 " clip-rule="nonzero"/></clipPath><clipPath id="86b3d29d52"><path d="M 74.960938 20.539062 C 44.898438 20.539062 20.523438 44.910156 20.523438 74.972656 C 20.523438 105.039062 44.898438 129.410156 74.960938 129.410156 C 105.023438 129.410156 129.398438 105.039062 129.398438 74.972656 C 129.398438 44.910156 105.023438 20.539062 74.960938 20.539062 Z M 74.960938 20.539062 " clip-rule="nonzero"/></clipPath><clipPath id="9c0eb67692"><path d="M 31.832031 33.082031 L 117.800781 33.082031 L 117.800781 109 L 31.832031 109 Z M 31.832031 33.082031 " clip-rule="nonzero"/></clipPath><clipPath id="152f18e02e"><path d="M 31.832031 106 L 117.800781 106 L 117.800781 109.328125 L 31.832031 109.328125 Z M 31.832031 106 " clip-rule="nonzero"/></clipPath></defs><g clip-path="url(#3b9e7bf1a9)"><g clip-path="url(#b080d02a9d)"><path fill="#f2f4ff" d="M 2.894531 2.859375 L 147.121094 2.859375 L 147.121094 147.085938 L 2.894531 147.085938 Z M 2.894531 2.859375 " fill-opacity="1" fill-rule="nonzero"/></g></g><g clip-path="url(#b3156eb9e3)"><g clip-path="url(#86b3d29d52)"><path fill="#8490cf" d="M 20.523438 20.539062 L 129.398438 20.539062 L 129.398438 129.410156 L 20.523438 129.410156 Z M 20.523438 20.539062 " fill-opacity="1" fill-rule="nonzero"/></g></g><g clip-path="url(#9c0eb67692)"><path fill="#030405" d="M 26.21875 108.269531 C 26.328125 108.304688 26.476562 108.304688 26.585938 108.304688 C 29.449219 107.648438 32.347656 107.097656 35.28125 106.660156 C 36.710938 106.367188 38.179688 106.109375 39.648438 105.890625 C 39.867188 105.855469 40.125 105.820312 40.417969 105.746094 C 41.480469 105.488281 42.542969 105.308594 43.609375 105.015625 C 44.855469 104.648438 46.835938 104.246094 49.625 103.769531 C 49.773438 103.734375 49.882812 103.699219 49.992188 103.625 C 49.992188 103.625 49.992188 103.660156 49.992188 103.699219 L 49.992188 103.734375 C 49.992188 103.769531 49.992188 103.769531 50.027344 103.769531 L 64.667969 102.710938 C 72.8125 102.125 80.917969 102.234375 89.0625 103.003906 C 93.132812 103.296875 96.582031 103.550781 99.40625 103.808594 C 100.507812 103.917969 101.757812 104.246094 102.746094 104.429688 C 104.835938 104.792969 107.003906 105.378906 108.984375 105.710938 C 110.816406 106.039062 112.726562 106.441406 114.414062 106.734375 C 115.878906 106.988281 117.347656 107.207031 118.816406 107.429688 C 119.476562 107.574219 120.097656 107.71875 120.757812 107.792969 C 121.601562 107.902344 122.445312 108.195312 123.328125 108.304688 C 123.730469 108.34375 123.730469 108.304688 123.363281 108.160156 L 119.21875 106.476562 C 117.53125 105.855469 115.84375 105.234375 114.15625 104.574219 C 112.394531 103.917969 110.449219 103.257812 108.617188 102.5625 C 106.890625 101.941406 104.617188 101.210938 101.71875 100.441406 C 101.644531 100.441406 101.609375 100.371094 101.609375 100.332031 L 101.644531 97.957031 C 101.609375 90.679688 101.574219 83.4375 101.574219 76.160156 C 101.574219 70.820312 101.5 65.480469 101.535156 60.144531 C 101.535156 59.59375 101.574219 59.046875 101.609375 58.535156 C 101.609375 58.425781 101.535156 58.351562 101.460938 58.351562 C 101.167969 58.3125 100.984375 58.023438 100.800781 57.910156 C 99.261719 56.816406 97.683594 55.71875 96.179688 54.511719 C 95.484375 53.960938 94.710938 53.523438 94.015625 53.011719 C 93.90625 52.9375 93.867188 52.792969 93.90625 52.683594 L 94.015625 52.425781 C 94.050781 52.316406 94.125 52.28125 94.234375 52.351562 C 96.511719 53.925781 98.675781 55.570312 100.839844 57.328125 C 100.984375 57.4375 101.058594 57.398438 101.09375 57.21875 L 101.207031 56.632812 C 101.242188 56.484375 101.167969 56.339844 101.058594 56.265625 L 93.464844 50.414062 C 93.429688 50.378906 93.390625 50.34375 93.390625 50.304688 L 93.355469 50.230469 C 93.316406 50.195312 93.28125 50.160156 93.246094 50.195312 C 92.179688 50.707031 91.117188 51.148438 89.980469 51.4375 L 89.429688 51.621094 L 89.394531 49.867188 C 89.539062 49.464844 89.539062 49.171875 89.355469 48.988281 C 89.28125 48.878906 89.210938 48.804688 89.097656 48.734375 C 83.15625 44.125 77.433594 39.1875 71.5625 34.472656 C 71.011719 34.03125 70.5 33.554688 69.984375 33.082031 C 69.949219 33.082031 69.949219 33.082031 69.914062 33.117188 C 69.546875 33.847656 69.253906 34.726562 68.957031 35.386719 C 67.929688 37.542969 66.867188 39.699219 65.804688 41.820312 C 65.695312 42.003906 65.582031 42.40625 65.472656 43.027344 C 65.472656 43.101562 65.472656 43.136719 65.511719 43.210938 C 65.730469 43.578125 65.804688 43.980469 65.804688 44.382812 C 65.804688 44.527344 65.878906 44.5625 65.988281 44.492188 L 66.171875 44.417969 C 66.316406 44.382812 66.390625 44.269531 66.425781 44.125 C 66.464844 43.871094 66.5 43.722656 66.539062 43.648438 C 67.566406 42.039062 68.554688 40.429688 69.507812 38.785156 C 69.691406 38.457031 69.949219 38.128906 70.207031 37.871094 C 70.351562 37.726562 70.535156 37.726562 70.71875 37.835938 C 76.296875 42.222656 81.796875 46.539062 87.226562 50.78125 C 88 51.402344 88.804688 51.914062 89.648438 52.316406 C 89.722656 52.351562 89.722656 52.390625 89.722656 52.464844 L 89.722656 97.628906 C 89.722656 97.664062 89.6875 97.699219 89.648438 97.699219 L 86.714844 97.078125 C 86.679688 97.078125 86.640625 97.042969 86.640625 96.96875 L 86.640625 90.789062 C 86.640625 90.75 86.605469 90.679688 86.53125 90.679688 L 84.367188 90.351562 C 84.21875 90.3125 84.183594 90.386719 84.292969 90.496094 C 84.476562 90.75 84.585938 91.082031 84.585938 91.484375 C 84.585938 93.019531 84.550781 94.589844 84.511719 96.128906 C 84.511719 96.238281 84.550781 96.382812 84.585938 96.566406 C 84.625 96.675781 84.585938 96.710938 84.476562 96.675781 L 84.148438 96.640625 C 84.035156 96.640625 84 96.566406 84 96.492188 L 83.925781 90.386719 C 83.925781 90.3125 83.890625 90.277344 83.851562 90.277344 L 81.796875 89.765625 C 81.726562 89.765625 81.6875 89.765625 81.6875 89.835938 L 81.6875 96.128906 C 81.6875 96.238281 81.652344 96.273438 81.542969 96.238281 L 81.25 96.128906 C 81.175781 96.089844 81.136719 96.054688 81.136719 95.980469 L 81.136719 89.691406 C 81.136719 89.65625 81.101562 89.617188 81.066406 89.582031 L 79.230469 89.214844 C 79.230469 89.214844 79.230469 89.214844 79.195312 89.214844 C 79.121094 89.214844 79.085938 89.253906 79.085938 89.324219 L 79.046875 95.6875 C 79.046875 95.761719 79.011719 95.796875 78.9375 95.796875 L 78.789062 95.796875 C 78.71875 95.796875 78.679688 95.726562 78.679688 95.6875 L 78.679688 89.214844 C 78.679688 89.179688 78.644531 89.144531 78.605469 89.144531 L 76.917969 88.703125 C 76.882812 88.703125 76.847656 88.703125 76.847656 88.742188 L 76.882812 95.46875 C 76.882812 95.542969 76.808594 95.578125 76.734375 95.578125 L 74.535156 95.25 C 74.351562 95.214844 74.203125 95.214844 74.019531 95.25 L 70.902344 95.652344 C 70.902344 95.652344 70.902344 95.652344 70.867188 95.652344 C 70.792969 95.652344 70.71875 95.578125 70.71875 95.507812 C 70.828125 89.105469 70.683594 82.78125 70.792969 76.378906 C 70.792969 75.246094 70.828125 74.113281 70.792969 72.941406 C 70.757812 68.296875 70.71875 63.652344 70.757812 59.007812 C 70.757812 57.21875 70.71875 54.914062 70.757812 52.828125 C 70.792969 50.5625 70.792969 48.476562 70.757812 46.027344 C 70.757812 44.636719 70.792969 43.210938 70.757812 41.859375 C 70.71875 40.578125 70.757812 39.40625 70.535156 38.128906 C 70.535156 38.128906 70.535156 38.089844 70.5 38.089844 C 70.460938 38.054688 70.425781 38.089844 70.425781 38.128906 C 69.984375 38.785156 69.582031 39.480469 69.179688 40.210938 C 68.847656 40.871094 68.410156 41.457031 68.042969 42.113281 C 67.859375 42.441406 67.234375 43.394531 67.160156 43.871094 C 67.085938 44.453125 67.085938 45.367188 67.125 46.648438 C 67.160156 48 67.199219 48.914062 67.199219 49.429688 C 67.234375 54.621094 67.269531 59.777344 67.308594 64.933594 L 67.382812 73.964844 L 67.34375 80.660156 L 67.308594 88.082031 C 67.34375 89.617188 67.308594 91.191406 67.234375 92.726562 C 67.234375 92.910156 67.125 93.019531 67.125 93.203125 C 67.601562 93.347656 68.113281 93.421875 68.628906 93.386719 C 68.703125 93.386719 68.703125 93.421875 68.703125 93.457031 L 68.664062 95.578125 C 68.664062 95.796875 68.554688 95.945312 68.335938 95.945312 L 65.765625 96.273438 C 65.730469 96.273438 65.695312 96.238281 65.695312 96.164062 L 65.765625 61.386719 C 65.765625 61.351562 65.765625 61.3125 65.765625 61.3125 L 65.839844 61.128906 C 65.878906 61.058594 65.839844 60.984375 65.765625 60.949219 L 60.191406 57.765625 C 60.152344 57.730469 60.117188 57.730469 60.042969 57.765625 C 58.429688 59.191406 56.960938 60.835938 55.53125 62.191406 C 53.992188 63.691406 52.046875 65.628906 50.175781 67.238281 C 50.140625 67.273438 50.101562 67.308594 50.101562 67.382812 L 50.027344 71.550781 C 50.027344 71.773438 50.101562 71.808594 50.25 71.625 C 51.019531 70.710938 51.863281 69.832031 53.402344 68.589844 C 53.660156 68.371094 53.878906 68.1875 54.027344 67.96875 C 54.320312 67.640625 54.652344 67.492188 54.90625 67.238281 C 56.117188 66.175781 57.328125 65.117188 58.613281 63.984375 C 58.6875 63.910156 58.796875 63.910156 58.832031 64.019531 C 59.164062 64.605469 58.503906 65.117188 58.101562 65.480469 C 56.046875 67.308594 53.992188 69.101562 51.898438 70.894531 C 51.347656 71.371094 50.800781 71.882812 50.285156 72.429688 C 49.773438 72.941406 49.332031 73.234375 48.707031 73.601562 C 48.453125 73.746094 48.378906 73.929688 48.453125 74.222656 L 48.488281 74.332031 C 48.5625 74.589844 48.707031 74.660156 48.929688 74.515625 C 50.984375 73.125 52.742188 71.261719 54.722656 69.761719 C 55.019531 69.542969 55.273438 69.25 55.496094 69.066406 C 56.851562 68.226562 57.953125 67.308594 59.054688 66.359375 C 59.164062 66.285156 59.238281 66.214844 59.347656 66.175781 C 59.382812 66.175781 59.421875 66.140625 59.421875 66.175781 C 59.492188 66.175781 59.53125 66.25 59.492188 66.324219 C 59.238281 67.273438 59.238281 68.113281 59.238281 69.066406 C 59.199219 71.148438 59.199219 73.199219 59.238281 75.28125 C 59.273438 76.417969 59.164062 77.769531 59.199219 79.011719 C 59.238281 79.707031 59.125 80.476562 59.164062 81.207031 C 59.308594 85.851562 59.164062 90.53125 59.125 95.175781 L 59.015625 97.699219 C 59.015625 97.738281 58.980469 97.773438 58.945312 97.773438 C 58.871094 97.773438 58.796875 97.808594 58.722656 97.808594 C 58.761719 96.96875 58.761719 95.25 58.761719 95.175781 C 58.761719 94.8125 58.722656 94.410156 58.722656 94.042969 C 58.722656 89.507812 58.6875 85.011719 58.6875 80.476562 C 58.6875 76.234375 58.722656 71.992188 58.761719 67.710938 C 58.761719 67.710938 58.761719 67.675781 58.722656 67.675781 C 58.6875 67.640625 58.648438 67.640625 58.648438 67.675781 C 57.917969 68.371094 57.183594 69.03125 56.375 69.722656 C 55.972656 70.054688 56.046875 70.492188 56.082031 71.003906 C 56.117188 72.101562 56.007812 73.636719 56.046875 74.988281 C 56.082031 75.503906 56.082031 75.976562 56.082031 76.34375 C 56.046875 82.742188 56.046875 91.996094 56.082031 98.503906 C 55.933594 98.542969 55.789062 98.578125 55.640625 98.613281 C 55.640625 91.59375 55.714844 81.683594 55.679688 74.699219 C 55.679688 73.34375 55.679688 71.992188 55.75 70.601562 C 55.75 70.347656 55.640625 70.273438 55.421875 70.417969 C 54.722656 70.859375 54.0625 71.441406 53.402344 72.136719 C 53.332031 72.246094 53.292969 72.320312 53.292969 72.429688 C 53.332031 72.539062 53.332031 72.613281 53.332031 72.613281 C 53.292969 78.5 53.257812 84.425781 53.292969 90.3125 L 53.292969 99.164062 C 53.183594 99.199219 53.109375 99.199219 53 99.234375 L 52.964844 87.863281 L 53.035156 72.503906 C 53.035156 72.503906 53.035156 72.46875 53.035156 72.46875 C 53 72.429688 52.964844 72.429688 52.925781 72.46875 L 49.550781 75.210938 C 49.476562 75.28125 49.441406 75.355469 49.441406 75.464844 L 49.476562 78.246094 L 49.476562 83.292969 L 49.515625 100.078125 C 49.515625 99.382812 49.476562 97.445312 49.441406 97.445312 L 49.40625 97.445312 C 49.332031 97.40625 49.296875 99.75 49.257812 100.148438 C 49.183594 98.722656 49.148438 94.628906 49.183594 93.203125 C 49.257812 90.824219 49.183594 88.484375 49.222656 86.109375 C 49.222656 85.082031 49.222656 84.058594 49.222656 83.035156 L 49.296875 78.136719 L 49.296875 75.941406 C 49.296875 75.722656 49.183594 75.683594 49 75.722656 L 48.929688 75.757812 C 48.816406 75.792969 48.746094 75.90625 48.746094 76.050781 C 48.746094 82.925781 48.707031 92.726562 48.671875 99.601562 C 48.671875 99.710938 48.671875 99.929688 48.707031 100.296875 C 48.414062 100.371094 48.085938 100.441406 47.789062 100.550781 C 46.433594 100.953125 45.148438 101.246094 43.828125 101.6875 C 39.351562 103.1875 34.988281 104.792969 30.621094 106.550781 L 26.109375 108.34375 C 26.144531 108.230469 26.144531 108.230469 26.21875 108.269531 Z M 100.324219 61.972656 L 100.105469 62.410156 C 100.070312 62.445312 100.070312 62.519531 100.105469 62.554688 C 100.25 62.996094 100.179688 63.398438 100.179688 63.800781 C 100.179688 73.785156 100.179688 83.765625 100.179688 93.75 C 100.179688 95.214844 100.140625 97.738281 100.179688 99.75 C 100.179688 99.894531 100.105469 99.96875 99.957031 99.929688 L 98.378906 99.527344 C 98.34375 99.527344 98.308594 99.492188 98.308594 99.457031 C 98.269531 92.691406 98.199219 85.925781 98.234375 79.160156 C 98.234375 78.0625 98.199219 76.855469 98.199219 75.832031 C 98.234375 69.945312 98.234375 65.261719 98.160156 61.75 C 98.160156 61.421875 98.085938 60.984375 97.902344 60.398438 C 97.902344 60.324219 97.867188 60.289062 97.792969 60.289062 C 97.574219 60.214844 97.355469 60.253906 97.171875 60.398438 C 97.171875 60.398438 97.171875 60.398438 97.132812 60.433594 C 97.097656 60.507812 97.097656 60.617188 97.171875 60.65625 C 97.28125 60.726562 97.316406 60.835938 97.316406 61.019531 C 97.242188 72.941406 97.207031 84.863281 97.242188 96.785156 C 97.242188 97.554688 97.242188 98.359375 97.242188 99.164062 C 97.242188 99.199219 97.207031 99.234375 97.132812 99.234375 L 95.554688 98.871094 C 95.445312 98.832031 95.371094 98.761719 95.371094 98.652344 C 95.371094 94.261719 95.371094 89.910156 95.335938 85.632812 C 95.335938 82.78125 95.335938 79.523438 95.410156 75.867188 C 95.410156 75.792969 95.410156 75.648438 95.410156 75.390625 C 95.410156 70.089844 95.410156 64.789062 95.371094 59.449219 C 95.371094 59.191406 95.371094 58.972656 95.335938 58.714844 C 95.335938 58.679688 95.335938 58.644531 95.371094 58.605469 C 95.445312 58.496094 95.554688 58.496094 95.667969 58.535156 L 100.140625 61.460938 C 100.398438 61.570312 100.433594 61.75 100.324219 61.972656 Z M 93.941406 53.707031 C 93.941406 53.671875 93.941406 53.671875 93.980469 53.632812 C 94.050781 53.558594 94.089844 53.558594 94.199219 53.632812 C 94.675781 54.035156 95.078125 54.4375 95.628906 54.765625 C 96.914062 55.535156 98.050781 56.558594 99.261719 57.398438 C 99.847656 57.800781 100.363281 58.386719 101.023438 58.789062 C 101.058594 58.828125 101.09375 58.863281 101.09375 58.9375 L 101.058594 60.835938 C 101.058594 60.835938 101.058594 60.875 101.058594 60.875 C 101.023438 60.949219 100.949219 60.984375 100.875 60.949219 C 100.65625 60.875 100.433594 60.726562 100.214844 60.617188 C 99.042969 59.851562 97.832031 59.117188 96.65625 58.351562 C 96.363281 58.167969 96.105469 57.910156 95.847656 57.65625 C 95.8125 57.621094 95.738281 57.621094 95.703125 57.65625 L 95.519531 57.839844 C 95.484375 57.875 95.410156 57.910156 95.371094 57.910156 C 94.96875 57.875 94.566406 57.949219 94.234375 58.132812 C 94.234375 58.132812 94.199219 58.132812 94.199219 58.132812 C 94.125 58.132812 94.050781 58.09375 94.050781 58.023438 C 93.796875 56.59375 93.90625 55.097656 93.941406 53.707031 Z M 69.253906 63.46875 L 69.253906 45.660156 L 69.289062 43.066406 L 69.324219 43.066406 C 69.363281 43.066406 69.363281 43.066406 69.363281 43.101562 L 69.398438 45.550781 L 69.4375 64.054688 C 69.472656 64.347656 69.472656 64.605469 69.472656 64.898438 C 69.472656 69.285156 69.472656 73.671875 69.472656 78.0625 C 69.472656 78.171875 69.472656 78.246094 69.507812 78.316406 C 69.507812 78.355469 69.546875 78.390625 69.546875 78.464844 C 69.507812 81.097656 69.507812 83.730469 69.507812 86.328125 C 69.507812 88.300781 69.472656 90.238281 69.398438 92.214844 C 69.398438 92.433594 69.363281 92.652344 69.289062 92.871094 C 69.253906 92.984375 69.253906 92.984375 69.253906 92.871094 Z M 62.941406 67.128906 C 62.941406 66.066406 62.941406 65.007812 62.980469 63.945312 C 62.980469 63.761719 63.015625 63.582031 63.089844 63.433594 C 63.125 63.324219 63.164062 63.324219 63.199219 63.433594 C 63.273438 63.726562 63.347656 64.019531 63.347656 64.386719 C 63.347656 68.589844 63.347656 72.796875 63.308594 77 C 63.308594 80.074219 63.308594 83.144531 63.347656 86.253906 C 63.347656 87.9375 63.308594 89.949219 63.308594 91.777344 C 63.347656 93.347656 63.347656 94.957031 63.347656 96.53125 C 63.347656 96.53125 63.347656 96.566406 63.347656 96.566406 C 63.308594 96.601562 63.273438 96.640625 63.199219 96.601562 L 63.164062 96.566406 C 63.050781 96.53125 62.980469 96.421875 62.980469 96.273438 C 62.90625 86.546875 62.90625 76.78125 62.941406 67.128906 Z M 59.125 101.429688 C 60.925781 101.101562 62.757812 100.773438 64.59375 100.480469 C 67.234375 100.003906 69.984375 99.785156 72.664062 99.492188 C 73.472656 99.417969 74.277344 99.273438 75.085938 99.125 C 75.378906 99.089844 76.113281 99.273438 76.441406 99.308594 C 78.535156 99.601562 80.550781 99.820312 82.679688 100.1875 C 85.796875 100.734375 88.988281 101.175781 92.035156 101.832031 C 93.28125 102.089844 94.566406 102.269531 95.8125 102.671875 C 96.691406 102.929688 97.535156 103.039062 98.382812 103.367188 C 98.492188 103.40625 98.492188 103.441406 98.382812 103.40625 C 95.445312 103.113281 92.472656 102.785156 89.503906 102.492188 C 86.605469 102.199219 83.191406 101.980469 79.265625 101.832031 C 74.351562 101.6875 69.4375 101.757812 64.484375 102.125 C 60.152344 102.417969 56.960938 102.710938 54.945312 102.964844 C 53.332031 103.1875 51.679688 103.367188 50.066406 103.550781 C 53.035156 102.671875 56.046875 101.980469 59.125 101.429688 Z M 51.386719 74.148438 C 51.386719 74.039062 51.421875 73.929688 51.496094 73.855469 L 51.605469 73.710938 C 51.605469 73.710938 51.644531 73.671875 51.644531 73.671875 C 51.679688 73.671875 51.714844 73.710938 51.714844 73.746094 L 51.679688 87.460938 L 51.679688 99.417969 C 51.570312 99.457031 51.496094 99.457031 51.386719 99.492188 L 51.421875 87.570312 Z M 51.386719 74.148438 " fill-opacity="1" fill-rule="nonzero"/></g><path fill="#030405" d="M 71.527344 40.210938 L 71.453125 40.210938 C 71.417969 40.210938 71.417969 40.210938 71.417969 40.25 C 71.378906 41.601562 71.304688 42.992188 71.34375 44.34375 C 71.378906 51.511719 71.417969 58.644531 71.488281 65.8125 C 71.488281 66.796875 71.453125 68.226562 71.527344 69.46875 C 71.5625 69.871094 71.417969 70.234375 71.453125 70.636719 C 71.488281 71.296875 71.527344 71.84375 71.527344 72.246094 C 71.527344 74.148438 71.488281 77.222656 71.453125 81.464844 C 71.453125 82.707031 71.5625 84.167969 71.527344 85.558594 C 71.488281 88.339844 71.488281 90.277344 71.453125 92.691406 C 71.453125 92.761719 71.488281 92.800781 71.527344 92.835938 L 71.601562 92.871094 C 71.671875 92.910156 71.710938 92.871094 71.710938 92.800781 C 71.671875 89.835938 71.746094 86.910156 71.710938 83.988281 C 71.671875 79.707031 71.820312 75.390625 71.785156 71.113281 C 71.746094 66.726562 71.746094 62.335938 71.746094 57.949219 C 71.746094 54.949219 71.746094 52.0625 71.671875 48.914062 C 71.636719 47.453125 71.636719 45.953125 71.636719 44.492188 C 71.636719 43.101562 71.636719 41.75 71.636719 40.359375 C 71.636719 40.285156 71.601562 40.25 71.527344 40.210938 Z M 71.527344 40.210938 " fill-opacity="1" fill-rule="nonzero"/><path fill="#030405" d="M 67.085938 64.640625 C 67.085938 58.714844 67.050781 52.792969 67.015625 46.832031 C 67.015625 46.027344 66.90625 45.296875 66.757812 44.527344 C 66.757812 44.492188 66.722656 44.453125 66.722656 44.527344 C 66.648438 44.710938 66.609375 44.855469 66.609375 45.039062 C 66.574219 51.257812 66.609375 57.4375 66.757812 63.652344 C 66.90625 70.382812 66.683594 80.949219 66.722656 93.238281 C 66.722656 93.3125 66.757812 93.347656 66.832031 93.347656 C 67.015625 93.386719 67.160156 93.347656 67.199219 93.238281 L 67.234375 87.386719 C 67.234375 85.304688 67.199219 83.21875 67.234375 81.097656 C 67.234375 80.769531 67.234375 80.402344 67.234375 80.074219 C 67.125 77.84375 67.199219 75.539062 67.269531 73.308594 C 67.308594 72.503906 67.199219 71.625 67.199219 70.894531 C 67.125 68.808594 67.125 66.726562 67.085938 64.640625 Z M 67.085938 64.640625 " fill-opacity="1" fill-rule="nonzero"/><path fill="#030405" d="M 78.71875 48.660156 C 78.71875 48.625 78.71875 48.625 78.679688 48.585938 C 78.167969 47.964844 77.433594 47.527344 76.847656 46.976562 C 76.847656 46.976562 76.808594 46.976562 76.808594 46.976562 C 76.773438 46.976562 76.773438 47.015625 76.773438 47.015625 L 76.773438 49.867188 C 76.773438 49.902344 76.773438 49.941406 76.808594 49.941406 L 78.605469 51.074219 C 78.605469 51.074219 78.644531 51.074219 78.644531 51.035156 L 78.644531 48.769531 C 78.644531 48.734375 78.644531 48.695312 78.679688 48.695312 C 78.71875 48.695312 78.71875 48.660156 78.71875 48.660156 Z M 78.71875 48.660156 " fill-opacity="1" fill-rule="nonzero"/><path fill="#030405" d="M 79.304688 51.730469 L 81.027344 52.867188 C 81.027344 52.867188 81.027344 52.867188 81.066406 52.867188 C 81.101562 52.867188 81.101562 52.828125 81.136719 52.828125 L 81.25 50.78125 C 81.25 50.632812 81.175781 50.488281 81.066406 50.378906 L 79.046875 48.734375 C 79.011719 48.734375 79.011719 48.695312 78.972656 48.734375 C 78.9375 48.734375 78.9375 48.804688 78.9375 48.84375 C 78.9375 48.878906 78.972656 48.878906 78.972656 48.878906 C 78.972656 48.878906 78.972656 48.878906 78.972656 48.914062 C 78.972656 48.953125 78.972656 48.988281 78.972656 49.027344 C 78.972656 49.0625 78.972656 49.136719 78.972656 49.171875 C 79.230469 49.867188 79.195312 50.78125 79.195312 51.550781 C 79.195312 51.621094 79.230469 51.695312 79.304688 51.730469 Z M 79.304688 51.730469 " fill-opacity="1" fill-rule="nonzero"/><path fill="#030405" d="M 76.773438 50.632812 C 76.773438 50.671875 76.808594 50.707031 76.847656 50.78125 C 77.25 51.292969 77.691406 51.730469 78.167969 52.097656 C 79.414062 53.046875 80.625 54.035156 81.945312 54.914062 C 83.121094 55.71875 84.84375 56.632812 86.238281 57.65625 C 86.238281 57.65625 86.238281 57.65625 86.273438 57.65625 L 86.3125 57.621094 C 86.3125 57.582031 86.3125 57.582031 86.3125 57.582031 C 85.980469 57.289062 85.210938 56.777344 84 55.972656 C 81.980469 54.621094 79.632812 52.902344 76.957031 50.746094 C 76.917969 50.707031 76.917969 50.707031 76.882812 50.707031 C 76.882812 50.707031 76.882812 50.707031 76.847656 50.707031 C 76.808594 50.632812 76.808594 50.632812 76.773438 50.632812 C 76.773438 50.597656 76.773438 50.597656 76.773438 50.632812 Z M 76.773438 50.632812 " fill-opacity="1" fill-rule="nonzero"/><path fill="#030405" d="M 83.414062 54.511719 C 83.488281 54.511719 83.523438 54.472656 83.523438 54.402344 C 83.558594 53.925781 83.558594 53.449219 83.558594 53.011719 C 83.558594 52.5 83.597656 52.242188 83.15625 51.949219 C 82.679688 51.621094 82.164062 51.292969 81.652344 50.964844 C 81.652344 50.964844 81.652344 50.964844 81.617188 50.964844 C 81.578125 50.964844 81.578125 51 81.578125 51 L 81.542969 53.085938 C 81.542969 53.121094 81.542969 53.15625 81.578125 53.195312 C 82.019531 53.523438 82.898438 54.363281 83.414062 54.511719 Z M 83.414062 54.511719 " fill-opacity="1" fill-rule="nonzero"/><path fill="#030405" d="M 78.753906 53.851562 C 78.753906 53.742188 78.679688 53.632812 78.605469 53.558594 L 77.03125 52.390625 C 76.917969 52.316406 76.847656 52.351562 76.847656 52.464844 C 76.734375 53.230469 76.734375 54 76.808594 54.765625 C 76.808594 54.839844 76.847656 54.875 76.882812 54.914062 L 78.644531 56.121094 C 78.644531 56.121094 78.679688 56.121094 78.679688 56.121094 C 78.71875 56.121094 78.753906 56.082031 78.753906 56.046875 Z M 78.753906 53.851562 " fill-opacity="1" fill-rule="nonzero"/><path fill="#030405" d="M 85.722656 56.15625 C 85.796875 56.15625 85.835938 56.121094 85.835938 56.046875 L 85.945312 54.035156 C 85.945312 54 85.945312 53.960938 85.90625 53.925781 L 84.183594 52.683594 C 84.183594 52.683594 84.148438 52.644531 84.109375 52.644531 C 84.035156 52.644531 84 52.683594 84 52.753906 L 83.925781 54.730469 C 83.925781 54.765625 83.925781 54.804688 83.964844 54.804688 L 85.613281 56.046875 C 85.6875 56.15625 85.6875 56.15625 85.722656 56.15625 Z M 85.722656 56.15625 " fill-opacity="1" fill-rule="nonzero"/><path fill="#030405" d="M 79.339844 56.523438 L 80.953125 57.546875 C 81.066406 57.621094 81.136719 57.582031 81.136719 57.4375 L 81.210938 55.425781 C 81.210938 55.351562 81.175781 55.316406 81.136719 55.277344 L 79.449219 54.144531 C 79.449219 54.144531 79.414062 54.144531 79.414062 54.144531 C 79.378906 54.144531 79.304688 54.183594 79.304688 54.253906 C 79.265625 54.949219 79.121094 55.71875 79.230469 56.375 C 79.265625 56.414062 79.304688 56.449219 79.339844 56.523438 Z M 79.339844 56.523438 " fill-opacity="1" fill-rule="nonzero"/><path fill="#030405" d="M 86.75 54.546875 C 86.75 54.472656 86.714844 54.472656 86.640625 54.472656 C 86.566406 54.511719 86.53125 54.585938 86.53125 54.695312 C 86.496094 55.71875 86.53125 56.667969 86.605469 57.621094 C 86.640625 58.203125 86.714844 58.203125 86.789062 57.621094 C 86.863281 56.707031 86.972656 55.535156 86.75 54.546875 Z M 86.75 54.546875 " fill-opacity="1" fill-rule="nonzero"/><path fill="#030405" d="M 81.6875 57.984375 L 83.304688 59.15625 C 83.449219 59.265625 83.523438 59.230469 83.523438 59.046875 L 83.523438 57.070312 C 83.523438 56.960938 83.449219 56.851562 83.339844 56.777344 L 81.652344 55.71875 C 81.652344 55.71875 81.617188 55.71875 81.578125 55.71875 C 81.542969 55.71875 81.46875 55.753906 81.503906 55.828125 L 81.617188 57.109375 Z M 81.6875 57.984375 " fill-opacity="1" fill-rule="nonzero"/><path fill="#030405" d="M 85.503906 60.582031 C 85.652344 60.691406 85.722656 60.65625 85.761719 60.472656 L 85.835938 58.460938 C 85.835938 58.386719 85.796875 58.277344 85.722656 58.242188 L 84.367188 57.363281 C 84.332031 57.328125 84.257812 57.328125 84.21875 57.363281 C 84.148438 57.4375 84.074219 57.511719 84.074219 57.65625 C 84 58.203125 83.964844 58.753906 84 59.300781 C 84 59.375 84.035156 59.410156 84.074219 59.449219 Z M 85.503906 60.582031 " fill-opacity="1" fill-rule="nonzero"/><path fill="#030405" d="M 77.03125 57.621094 C 77.03125 57.621094 76.992188 57.621094 76.992188 57.621094 C 76.957031 57.621094 76.917969 57.65625 76.917969 57.691406 L 76.917969 60.324219 C 76.917969 60.363281 76.917969 60.398438 76.957031 60.398438 L 78.605469 61.386719 C 78.605469 61.386719 78.644531 61.386719 78.644531 61.386719 C 78.679688 61.386719 78.71875 61.351562 78.71875 61.3125 L 78.828125 58.898438 C 78.828125 58.863281 78.828125 58.863281 78.789062 58.828125 Z M 77.03125 57.621094 " fill-opacity="1" fill-rule="nonzero"/><path fill="#030405" d="M 86.457031 58.789062 L 86.566406 61.570312 C 86.566406 61.570312 86.566406 61.605469 86.566406 61.605469 L 86.679688 61.789062 C 86.679688 61.824219 86.714844 61.824219 86.75 61.824219 C 86.789062 61.824219 86.824219 61.789062 86.824219 61.75 L 86.824219 59.15625 C 86.824219 59.15625 86.824219 59.117188 86.824219 59.117188 L 86.640625 58.753906 C 86.640625 58.714844 86.605469 58.714844 86.566406 58.714844 C 86.496094 58.714844 86.457031 58.753906 86.457031 58.789062 Z M 86.457031 58.789062 " fill-opacity="1" fill-rule="nonzero"/><path fill="#030405" d="M 81.210938 60.472656 C 80.589844 59.921875 79.929688 59.484375 79.230469 59.15625 C 79.085938 59.15625 79.046875 59.265625 79.121094 59.410156 C 79.265625 59.777344 79.230469 60.363281 79.195312 60.726562 L 79.230469 61.460938 C 79.230469 61.53125 79.265625 61.570312 79.304688 61.605469 C 79.671875 61.972656 80.074219 62.226562 80.550781 62.375 C 80.773438 62.445312 80.882812 62.59375 81.101562 62.703125 C 81.175781 62.738281 81.210938 62.738281 81.175781 62.628906 C 81.175781 62.484375 81.136719 62.335938 81.066406 62.226562 C 81.027344 62.152344 81.027344 62.117188 81.066406 62.042969 C 81.210938 61.640625 81.320312 61.203125 81.359375 60.765625 C 81.359375 60.65625 81.320312 60.546875 81.210938 60.472656 Z M 81.210938 60.472656 " fill-opacity="1" fill-rule="nonzero"/><path fill="#030405" d="M 81.542969 62.847656 C 81.542969 62.921875 81.578125 62.996094 81.652344 63.03125 L 83.558594 64.054688 C 83.558594 64.054688 83.597656 64.054688 83.597656 64.054688 C 83.632812 64.054688 83.667969 64.019531 83.667969 63.984375 C 83.667969 63.398438 83.632812 62.8125 83.632812 62.226562 C 83.632812 61.570312 82.277344 61.019531 81.761719 60.765625 C 81.726562 60.765625 81.726562 60.765625 81.6875 60.765625 C 81.617188 60.765625 81.542969 60.835938 81.542969 60.910156 Z M 81.542969 62.847656 " fill-opacity="1" fill-rule="nonzero"/><path fill="#030405" d="M 76.808594 62.957031 L 78.644531 64.164062 C 78.644531 64.164062 78.679688 64.164062 78.679688 64.164062 C 78.71875 64.164062 78.753906 64.128906 78.753906 64.09375 L 78.71875 62.300781 C 78.71875 62.265625 78.71875 62.226562 78.679688 62.226562 L 76.917969 61.128906 C 76.917969 61.128906 76.882812 61.128906 76.882812 61.128906 C 76.847656 61.128906 76.808594 61.167969 76.773438 61.203125 L 76.734375 62.886719 C 76.773438 62.886719 76.773438 62.921875 76.808594 62.957031 Z M 76.808594 62.957031 " fill-opacity="1" fill-rule="nonzero"/><path fill="#030405" d="M 86.019531 64.054688 C 85.90625 63.871094 85.835938 63.691406 85.835938 63.46875 C 85.835938 63.324219 85.722656 63.179688 85.613281 63.140625 L 84.183594 62.375 C 84.035156 62.300781 83.964844 62.335938 83.964844 62.519531 L 84 64.203125 C 84 64.273438 84.035156 64.3125 84.074219 64.347656 C 84.660156 64.75 85.285156 65.078125 85.945312 65.300781 C 85.945312 65.300781 85.980469 65.300781 85.980469 65.300781 C 86.019531 65.300781 86.054688 65.226562 86.019531 65.191406 C 85.90625 64.859375 85.90625 64.53125 86.019531 64.203125 C 86.054688 64.164062 86.054688 64.09375 86.019531 64.054688 Z M 86.019531 64.054688 " fill-opacity="1" fill-rule="nonzero"/><path fill="#030405" d="M 79.230469 64.386719 L 81.175781 65.410156 C 81.175781 65.410156 81.175781 65.410156 81.210938 65.410156 C 81.25 65.410156 81.285156 65.371094 81.285156 65.335938 L 81.285156 63.542969 C 81.285156 63.507812 81.285156 63.507812 81.25 63.507812 L 79.265625 62.335938 C 79.265625 62.335938 79.230469 62.335938 79.230469 62.335938 C 79.195312 62.335938 79.15625 62.375 79.195312 62.410156 L 79.230469 64.3125 C 79.195312 64.347656 79.195312 64.386719 79.230469 64.386719 Z M 79.230469 64.386719 " fill-opacity="1" fill-rule="nonzero"/><path fill="#030405" d="M 83.597656 64.933594 L 81.761719 63.910156 C 81.761719 63.910156 81.726562 63.910156 81.726562 63.910156 C 81.652344 63.910156 81.617188 63.945312 81.617188 64.019531 L 81.542969 65.554688 C 81.542969 65.589844 81.578125 65.664062 81.617188 65.664062 L 83.597656 66.617188 C 83.597656 66.617188 83.632812 66.617188 83.667969 66.617188 C 83.742188 66.617188 83.78125 66.542969 83.78125 66.507812 L 83.707031 65.042969 C 83.667969 65.007812 83.632812 64.96875 83.597656 64.933594 Z M 83.597656 64.933594 " fill-opacity="1" fill-rule="nonzero"/><path fill="#030405" d="M 86.382812 64.164062 C 86.347656 65.664062 86.347656 66.910156 86.347656 67.894531 C 86.347656 68.113281 86.457031 68.296875 86.640625 68.40625 C 86.679688 68.445312 86.714844 68.445312 86.714844 68.371094 C 86.789062 66.578125 86.824219 65.261719 86.640625 64.128906 C 86.640625 64.09375 86.605469 64.054688 86.53125 64.054688 L 86.496094 64.054688 C 86.457031 64.054688 86.421875 64.09375 86.382812 64.164062 Z M 86.382812 64.164062 " fill-opacity="1" fill-rule="nonzero"/><path fill="#030405" d="M 78.71875 68.40625 C 78.789062 68.40625 78.828125 68.371094 78.828125 68.296875 L 78.828125 66.507812 C 78.828125 66.394531 78.753906 66.324219 78.679688 66.285156 C 78.019531 66.03125 77.46875 65.664062 76.992188 65.191406 C 76.957031 65.152344 76.917969 65.152344 76.917969 65.226562 C 76.847656 65.921875 76.847656 66.578125 76.847656 67.273438 C 76.847656 67.96875 78.167969 68.226562 78.71875 68.40625 Z M 78.71875 68.40625 " fill-opacity="1" fill-rule="nonzero"/><path fill="#030405" d="M 85.578125 65.957031 L 84.257812 65.191406 C 84.21875 65.191406 84.21875 65.152344 84.183594 65.152344 C 84.074219 65.152344 84 65.226562 84 65.335938 L 84 66.652344 C 84 66.726562 84.035156 66.761719 84.074219 66.796875 C 84.402344 67.019531 84.476562 66.980469 84.660156 67.347656 C 84.695312 67.382812 84.734375 67.421875 84.769531 67.421875 L 85.6875 67.785156 C 85.722656 67.824219 85.761719 67.785156 85.761719 67.75 L 85.761719 66.359375 C 85.796875 66.140625 85.722656 66.03125 85.578125 65.957031 Z M 85.578125 65.957031 " fill-opacity="1" fill-rule="nonzero"/><path fill="#030405" d="M 79.15625 68.664062 L 81.175781 69.542969 C 81.175781 69.542969 81.210938 69.542969 81.210938 69.542969 C 81.25 69.542969 81.285156 69.503906 81.285156 69.46875 L 81.285156 67.566406 C 81.285156 67.53125 81.285156 67.492188 81.25 67.492188 L 79.265625 66.542969 C 79.265625 66.542969 79.230469 66.542969 79.230469 66.542969 C 79.195312 66.542969 79.15625 66.578125 79.15625 66.617188 L 79.121094 68.589844 C 79.121094 68.589844 79.15625 68.628906 79.15625 68.664062 Z M 79.15625 68.664062 " fill-opacity="1" fill-rule="nonzero"/><path fill="#030405" d="M 83.632812 68.589844 L 81.761719 67.75 C 81.761719 67.75 81.726562 67.75 81.726562 67.75 C 81.6875 67.75 81.652344 67.785156 81.652344 67.824219 L 81.6875 69.761719 C 81.6875 69.796875 81.726562 69.832031 81.726562 69.832031 L 83.597656 70.675781 C 83.597656 70.675781 83.632812 70.675781 83.632812 70.675781 C 83.667969 70.675781 83.707031 70.636719 83.707031 70.601562 L 83.667969 68.664062 C 83.667969 68.628906 83.667969 68.628906 83.632812 68.589844 Z M 83.632812 68.589844 " fill-opacity="1" fill-rule="nonzero"/><path fill="#030405" d="M 76.917969 70.125 C 77.324219 70.457031 78.128906 70.710938 78.644531 70.894531 C 78.679688 70.894531 78.679688 70.894531 78.679688 70.859375 L 78.679688 69.25 C 78.679688 69.210938 78.644531 69.175781 78.644531 69.175781 L 76.992188 68.296875 C 76.992188 68.296875 76.957031 68.296875 76.957031 68.296875 C 76.917969 68.296875 76.882812 68.335938 76.882812 68.371094 C 76.957031 68.917969 76.847656 69.394531 76.847656 69.945312 C 76.847656 70.054688 76.847656 70.089844 76.917969 70.125 Z M 76.917969 70.125 " fill-opacity="1" fill-rule="nonzero"/><path fill="#030405" d="M 85.871094 69.761719 L 84.109375 68.882812 C 84.109375 68.882812 84.109375 68.882812 84.074219 68.882812 C 84.035156 68.882812 84.035156 68.917969 84.035156 68.917969 L 84.035156 70.859375 C 84.035156 70.894531 84.035156 70.894531 84.074219 70.894531 L 85.871094 71.734375 C 85.871094 71.734375 85.871094 71.734375 85.90625 71.734375 C 85.945312 71.734375 85.945312 71.699219 85.945312 71.699219 L 85.945312 69.796875 C 85.90625 69.796875 85.871094 69.761719 85.871094 69.761719 Z M 85.871094 69.761719 " fill-opacity="1" fill-rule="nonzero"/><path fill="#030405" d="M 79.046875 69.359375 L 79.046875 71.078125 C 79.046875 71.113281 79.046875 71.113281 79.085938 71.148438 L 81.175781 72.066406 C 81.175781 72.066406 81.175781 72.066406 81.210938 72.066406 C 81.25 72.066406 81.285156 72.027344 81.285156 71.992188 L 81.285156 70.457031 C 81.285156 70.417969 81.285156 70.417969 81.25 70.382812 L 79.15625 69.285156 C 79.15625 69.285156 79.121094 69.285156 79.121094 69.285156 C 79.085938 69.320312 79.046875 69.320312 79.046875 69.359375 Z M 79.046875 69.359375 " fill-opacity="1" fill-rule="nonzero"/><path fill="#030405" d="M 86.605469 74.769531 C 86.679688 74.769531 86.75 73.636719 86.75 72.246094 L 86.75 70.199219 C 86.75 70.164062 86.714844 70.125 86.679688 70.125 L 86.457031 70.125 C 86.421875 70.125 86.382812 70.164062 86.382812 70.199219 L 86.382812 72.246094 C 86.382812 73.636719 86.421875 74.734375 86.496094 74.769531 Z M 86.605469 74.769531 " fill-opacity="1" fill-rule="nonzero"/><path fill="#030405" d="M 81.542969 72.175781 C 82.203125 72.613281 82.898438 72.941406 83.632812 73.234375 C 83.707031 73.269531 83.707031 73.234375 83.707031 73.160156 C 83.667969 72.757812 83.667969 72.320312 83.632812 71.917969 C 83.597656 71.148438 82.421875 70.75 81.835938 70.636719 C 81.652344 70.601562 81.578125 70.675781 81.578125 70.820312 L 81.542969 71.882812 C 81.542969 71.917969 81.542969 71.953125 81.503906 71.992188 C 81.503906 71.992188 81.46875 72.027344 81.46875 72.027344 C 81.503906 72.136719 81.503906 72.175781 81.542969 72.175781 Z M 81.542969 72.175781 " fill-opacity="1" fill-rule="nonzero"/><path fill="#030405" d="M 84.035156 73.382812 L 85.652344 74.113281 C 85.652344 74.113281 85.6875 74.113281 85.6875 74.113281 C 85.761719 74.113281 85.796875 74.074219 85.796875 74.003906 L 85.835938 72.578125 C 85.835938 72.539062 85.796875 72.503906 85.761719 72.46875 L 84.148438 71.664062 C 84.148438 71.664062 84.109375 71.664062 84.109375 71.664062 C 84.035156 71.664062 84 71.699219 84 71.773438 L 83.964844 73.308594 C 83.964844 73.308594 84 73.34375 84.035156 73.382812 Z M 84.035156 73.382812 " fill-opacity="1" fill-rule="nonzero"/><path fill="#030405" d="M 76.917969 74.476562 L 78.460938 75.136719 C 78.496094 75.136719 78.535156 75.136719 78.535156 75.136719 C 78.644531 75.136719 78.753906 75.027344 78.753906 74.917969 L 78.753906 73.34375 C 78.753906 73.199219 78.679688 73.089844 78.535156 73.015625 L 76.847656 72.210938 C 76.847656 72.210938 76.847656 72.210938 76.808594 72.210938 C 76.773438 72.210938 76.734375 72.246094 76.734375 72.246094 L 76.734375 74.1875 C 76.773438 74.332031 76.847656 74.441406 76.917969 74.476562 Z M 76.917969 74.476562 " fill-opacity="1" fill-rule="nonzero"/><path fill="#030405" d="M 81.320312 75.757812 L 81.25 74.367188 C 81.25 74.257812 81.175781 74.148438 81.066406 74.113281 L 79.265625 73.308594 C 79.195312 73.269531 79.15625 73.308594 79.15625 73.382812 C 79.15625 73.929688 79.195312 74.441406 79.230469 74.988281 C 79.230469 75.136719 79.339844 75.246094 79.523438 75.355469 C 80.074219 75.648438 80.625 75.832031 81.136719 75.941406 C 81.25 75.976562 81.320312 75.90625 81.320312 75.757812 Z M 81.320312 75.757812 " fill-opacity="1" fill-rule="nonzero"/><path fill="#030405" d="M 83.667969 75.171875 C 83.667969 75.136719 83.632812 75.101562 83.597656 75.0625 L 81.761719 74.367188 C 81.761719 74.367188 81.726562 74.367188 81.726562 74.367188 C 81.652344 74.367188 81.617188 74.441406 81.617188 74.476562 L 81.652344 76.050781 C 81.652344 76.085938 81.6875 76.125 81.726562 76.160156 L 83.597656 76.929688 C 83.597656 76.929688 83.632812 76.929688 83.632812 76.929688 C 83.707031 76.929688 83.742188 76.855469 83.742188 76.820312 Z M 83.667969 75.171875 " fill-opacity="1" fill-rule="nonzero"/><path fill="#030405" d="M 76.773438 76.710938 C 76.773438 76.746094 76.808594 76.78125 76.847656 76.78125 L 78.828125 77.476562 C 78.863281 77.476562 78.902344 77.476562 78.9375 77.441406 C 78.972656 77.402344 78.972656 77.332031 78.9375 77.292969 C 78.902344 77.257812 78.902344 77.257812 78.863281 77.222656 C 78.828125 77.183594 78.828125 77.109375 78.828125 77.109375 L 78.789062 76.195312 C 78.789062 76.050781 78.71875 75.941406 78.570312 75.867188 L 76.847656 75.101562 C 76.847656 75.101562 76.808594 75.101562 76.808594 75.136719 Z M 76.773438 76.710938 " fill-opacity="1" fill-rule="nonzero"/><path fill="#030405" d="M 85.722656 75.90625 L 84.074219 75.246094 C 84.074219 75.246094 84.035156 75.246094 84.035156 75.246094 C 84 75.246094 83.964844 75.28125 83.964844 75.320312 L 84 76.820312 C 84 76.890625 84.035156 76.964844 84.074219 77 C 84.585938 77.402344 85.175781 77.660156 85.835938 77.804688 C 85.871094 77.804688 85.90625 77.769531 85.90625 77.734375 L 85.871094 76.125 C 85.90625 76.015625 85.835938 75.941406 85.722656 75.90625 Z M 85.722656 75.90625 " fill-opacity="1" fill-rule="nonzero"/><path fill="#030405" d="M 79.230469 76.050781 C 79.15625 76.050781 79.085938 76.125 79.085938 76.195312 L 79.15625 77.402344 C 79.15625 77.550781 79.230469 77.660156 79.378906 77.734375 C 79.929688 78.027344 80.550781 78.207031 81.175781 78.355469 L 81.25 76.820312 C 80.699219 76.488281 80.039062 76.234375 79.304688 76.050781 C 79.265625 76.050781 79.230469 76.050781 79.230469 76.050781 Z M 79.230469 76.050781 " fill-opacity="1" fill-rule="nonzero"/><path fill="#030405" d="M 86.496094 80.550781 C 86.496094 80.585938 86.53125 80.585938 86.566406 80.585938 L 86.605469 80.585938 C 86.640625 80.585938 86.679688 80.550781 86.679688 80.476562 C 86.714844 79.195312 86.75 77.988281 86.789062 76.78125 C 86.789062 76.5625 86.75 76.378906 86.605469 76.269531 C 86.605469 76.269531 86.566406 76.234375 86.53125 76.234375 C 86.496094 76.234375 86.457031 76.269531 86.457031 76.34375 Z M 86.496094 80.550781 " fill-opacity="1" fill-rule="nonzero"/><path fill="#030405" d="M 81.617188 77.84375 L 81.652344 77.332031 L 81.652344 78.574219 C 82.203125 78.941406 82.824219 79.195312 83.449219 79.378906 C 83.523438 79.378906 83.558594 79.414062 83.558594 79.378906 C 83.632812 79.34375 83.667969 79.269531 83.667969 79.160156 L 83.597656 77.914062 C 83.597656 77.769531 83.523438 77.660156 83.375 77.625 L 81.726562 76.929688 C 81.726562 76.929688 81.6875 76.929688 81.6875 76.929688 C 81.617188 76.929688 81.578125 77 81.578125 77.074219 L 81.578125 77.585938 Z M 81.617188 77.84375 " fill-opacity="1" fill-rule="nonzero"/><path fill="#030405" d="M 84 79.304688 C 84 79.378906 84.035156 79.453125 84.109375 79.453125 L 85.578125 80.148438 C 85.613281 80.148438 85.613281 80.148438 85.652344 80.148438 C 85.761719 80.148438 85.835938 80.074219 85.835938 79.964844 L 85.835938 78.648438 C 85.835938 78.574219 85.796875 78.5 85.722656 78.5 L 84.21875 77.84375 C 84.183594 77.84375 84.183594 77.84375 84.148438 77.84375 C 84.035156 77.84375 83.964844 77.914062 83.964844 78.027344 Z M 84 79.304688 " fill-opacity="1" fill-rule="nonzero"/><path fill="#030405" d="M 76.917969 80.914062 C 77.507812 81.242188 78.128906 81.316406 78.679688 81.5 C 78.828125 81.023438 78.863281 80.476562 78.789062 79.816406 C 78.789062 79.78125 78.789062 79.707031 78.753906 79.671875 C 78.71875 79.632812 78.679688 79.597656 78.605469 79.5625 C 78.058594 79.34375 77.46875 79.121094 76.917969 78.867188 C 76.882812 78.828125 76.847656 78.867188 76.847656 78.902344 L 76.847656 80.769531 C 76.847656 80.839844 76.847656 80.878906 76.917969 80.914062 Z M 76.917969 80.914062 " fill-opacity="1" fill-rule="nonzero"/><path fill="#030405" d="M 81.285156 80.4375 L 79.304688 79.78125 C 79.230469 79.746094 79.195312 79.78125 79.15625 79.855469 C 79.121094 79.925781 79.121094 80.035156 79.15625 80.148438 L 79.304688 81.644531 C 79.890625 81.867188 80.476562 82.085938 81.027344 82.230469 C 81.175781 82.269531 81.25 82.230469 81.285156 82.195312 Z M 81.285156 80.4375 " fill-opacity="1" fill-rule="nonzero"/><path fill="#030405" d="M 83.78125 82.816406 L 83.78125 81.535156 C 83.78125 81.316406 83.667969 81.171875 83.449219 81.097656 L 81.652344 80.550781 L 81.652344 82.195312 C 81.652344 82.269531 81.6875 82.304688 81.761719 82.339844 C 82.3125 82.632812 82.9375 82.851562 83.558594 83 C 83.558594 83 83.597656 83 83.597656 83 C 83.667969 83.035156 83.78125 82.925781 83.78125 82.816406 Z M 83.78125 82.816406 " fill-opacity="1" fill-rule="nonzero"/><path fill="#030405" d="M 86.019531 83.621094 L 86.019531 82.046875 C 86.019531 82.011719 85.980469 81.9375 85.945312 81.9375 L 84.148438 81.390625 C 84.148438 81.390625 84.109375 81.390625 84.109375 81.390625 C 84.035156 81.390625 84 81.425781 84 81.5 L 84.035156 83.109375 C 84.035156 83.144531 84.074219 83.21875 84.109375 83.21875 L 85.835938 83.730469 C 85.835938 83.730469 85.871094 83.730469 85.871094 83.730469 C 85.945312 83.730469 86.019531 83.695312 86.019531 83.621094 Z M 86.019531 83.621094 " fill-opacity="1" fill-rule="nonzero"/><path fill="#030405" d="M 76.882812 83.585938 L 78.679688 84.023438 C 78.71875 84.023438 78.753906 83.988281 78.753906 83.949219 L 78.71875 82.304688 C 78.71875 82.269531 78.71875 82.269531 78.679688 82.269531 L 76.917969 81.792969 C 76.882812 81.792969 76.847656 81.828125 76.847656 81.867188 L 76.847656 83.546875 C 76.847656 83.546875 76.847656 83.585938 76.882812 83.585938 Z M 76.882812 83.585938 " fill-opacity="1" fill-rule="nonzero"/><path fill="#030405" d="M 86.679688 87.09375 C 86.75 87.09375 86.824219 84.902344 86.824219 82.230469 L 86.824219 82.195312 C 86.824219 82.15625 86.789062 82.15625 86.789062 82.15625 L 86.566406 82.15625 C 86.53125 82.15625 86.53125 82.195312 86.53125 82.195312 L 86.53125 82.230469 C 86.53125 82.230469 86.53125 82.230469 86.53125 82.269531 C 86.53125 84.972656 86.566406 87.132812 86.640625 87.132812 L 86.679688 87.132812 Z M 86.679688 87.09375 " fill-opacity="1" fill-rule="nonzero"/><path fill="#030405" d="M 81.285156 84.679688 L 81.210938 83.292969 C 81.210938 83.253906 81.175781 83.21875 81.136719 83.183594 L 79.339844 82.414062 C 79.339844 82.414062 79.304688 82.414062 79.304688 82.414062 C 79.230469 82.414062 79.195312 82.449219 79.195312 82.523438 L 79.15625 84.132812 C 79.15625 84.167969 79.195312 84.242188 79.230469 84.242188 L 81.136719 84.789062 C 81.136719 84.789062 81.175781 84.789062 81.175781 84.789062 C 81.25 84.789062 81.285156 84.753906 81.285156 84.679688 Z M 81.285156 84.679688 " fill-opacity="1" fill-rule="nonzero"/><path fill="#030405" d="M 83.597656 83.839844 L 81.796875 83.253906 C 81.796875 83.253906 81.761719 83.253906 81.761719 83.253906 C 81.6875 83.253906 81.652344 83.328125 81.652344 83.363281 L 81.726562 84.863281 C 81.726562 84.902344 81.761719 84.972656 81.796875 84.972656 L 83.558594 85.484375 C 83.558594 85.484375 83.597656 85.484375 83.597656 85.484375 C 83.667969 85.484375 83.707031 85.414062 83.707031 85.375 L 83.707031 83.949219 C 83.667969 83.914062 83.632812 83.875 83.597656 83.839844 Z M 83.597656 83.839844 " fill-opacity="1" fill-rule="nonzero"/><path fill="#030405" d="M 85.90625 86.179688 L 85.871094 84.753906 C 85.871094 84.71875 85.835938 84.644531 85.796875 84.644531 L 84.148438 83.988281 C 84.148438 83.988281 84.109375 83.988281 84.109375 83.988281 C 84.035156 83.988281 84 84.058594 84 84.097656 L 84.035156 85.523438 C 84.035156 85.558594 84.074219 85.632812 84.109375 85.632812 L 85.761719 86.328125 C 85.761719 86.328125 85.796875 86.328125 85.796875 86.328125 C 85.835938 86.328125 85.90625 86.253906 85.90625 86.179688 Z M 85.90625 86.179688 " fill-opacity="1" fill-rule="nonzero"/><path fill="#030405" d="M 76.917969 86.875 L 78.460938 87.203125 C 78.496094 87.203125 78.496094 87.203125 78.535156 87.203125 C 78.71875 87.203125 78.863281 87.058594 78.863281 86.875 L 78.863281 85.816406 C 78.863281 85.742188 78.828125 85.707031 78.753906 85.667969 L 77.066406 85.191406 C 77.03125 85.191406 76.992188 85.230469 76.957031 85.265625 L 76.847656 86.765625 C 76.847656 86.839844 76.882812 86.875 76.917969 86.875 Z M 76.917969 86.875 " fill-opacity="1" fill-rule="nonzero"/><path fill="#030405" d="M 79.304688 87.425781 L 80.953125 87.828125 C 81.101562 87.863281 81.175781 87.789062 81.175781 87.644531 L 81.175781 86.472656 C 81.175781 86.328125 81.101562 86.21875 80.953125 86.179688 L 79.304688 85.816406 C 79.121094 85.777344 79.046875 85.851562 79.046875 85.996094 L 79.011719 87.058594 C 79.085938 87.242188 79.15625 87.386719 79.304688 87.425781 Z M 79.304688 87.425781 " fill-opacity="1" fill-rule="nonzero"/><path fill="#030405" d="M 81.761719 87.972656 L 83.742188 88.375 C 83.742188 88.375 83.742188 88.375 83.78125 88.375 C 83.851562 88.375 83.890625 88.300781 83.890625 88.265625 L 83.851562 87.058594 C 83.851562 87.023438 83.816406 86.949219 83.78125 86.949219 L 81.726562 86.363281 C 81.726562 86.363281 81.6875 86.363281 81.6875 86.363281 C 81.617188 86.363281 81.578125 86.4375 81.578125 86.472656 L 81.652344 87.863281 C 81.6875 87.898438 81.726562 87.972656 81.761719 87.972656 Z M 81.761719 87.972656 " fill-opacity="1" fill-rule="nonzero"/><path fill="#030405" d="M 84.292969 87.058594 C 84.292969 87.058594 84.257812 87.058594 84.292969 87.058594 C 84.183594 87.058594 84.109375 87.132812 84.109375 87.203125 L 84.148438 88.410156 C 84.148438 88.484375 84.183594 88.519531 84.257812 88.558594 L 85.539062 88.960938 C 85.539062 88.960938 85.578125 88.960938 85.578125 88.960938 C 85.652344 88.960938 85.722656 88.886719 85.722656 88.8125 L 85.796875 87.425781 C 85.796875 87.351562 85.761719 87.277344 85.6875 87.277344 Z M 84.292969 87.058594 " fill-opacity="1" fill-rule="nonzero"/><path fill="#030405" d="M 104.324219 106.039062 C 101.683594 105.671875 98.894531 105.417969 96.214844 105.050781 C 94.824219 104.867188 92.914062 104.757812 92.070312 104.683594 C 91.042969 104.574219 89.980469 104.503906 88.953125 104.429688 C 82.898438 104.0625 76.847656 103.953125 70.792969 104.0625 C 69.363281 104.101562 66.722656 104.101562 64.703125 104.210938 C 58.28125 104.539062 50.945312 105.160156 44.085938 106 C 43.867188 106.039062 43.867188 106.074219 44.085938 106.109375 C 44.085938 106.109375 44.195312 106.109375 44.304688 106.109375 C 45.480469 106 46.800781 106 47.902344 105.890625 C 52.925781 105.453125 57.917969 105.125 62.941406 104.90625 C 66.242188 104.722656 68.886719 104.757812 71.855469 104.613281 C 72.1875 104.613281 72.699219 104.613281 73.398438 104.613281 C 74.09375 104.613281 74.828125 104.574219 75.453125 104.574219 C 76.625 104.613281 77.800781 104.613281 78.972656 104.613281 C 80.109375 104.613281 81.910156 104.722656 83.339844 104.722656 C 84.769531 104.722656 86.199219 104.867188 87.632812 104.941406 C 88.550781 104.976562 89.613281 105.050781 90.785156 105.125 C 92.179688 105.234375 93.648438 105.195312 95.042969 105.34375 L 106.046875 106.257812 C 106.046875 106.257812 106.085938 106.257812 106.085938 106.257812 C 106.085938 106.257812 106.121094 106.222656 106.085938 106.183594 C 106.085938 106.183594 106.046875 106.148438 106.046875 106.148438 C 105.496094 106.183594 104.910156 106.148438 104.324219 106.039062 Z M 104.324219 106.039062 " fill-opacity="1" fill-rule="nonzero"/><g clip-path="url(#152f18e02e)"><path fill="#030405" d="M 124.941406 109.292969 L 117.238281 108.5625 C 114.414062 108.269531 111.550781 107.976562 108.691406 107.71875 C 108.101562 107.683594 107.296875 107.683594 106.597656 107.574219 C 105.679688 107.464844 105.167969 107.390625 105.058594 107.355469 C 101.757812 107.0625 98.453125 106.769531 95.117188 106.511719 C 90.125 106.257812 84.992188 106.109375 76.773438 106.039062 C 73.359375 106.039062 68.886719 106.039062 63.382812 106.109375 C 58.796875 106.257812 54.246094 106.402344 49.699219 106.804688 C 49.183594 106.84375 48.5625 106.84375 48.15625 106.878906 C 44.488281 107.28125 40.820312 107.609375 37.152344 107.941406 C 35.5 108.085938 33.851562 108.269531 32.199219 108.488281 C 29.851562 108.78125 27.503906 108.855469 25.15625 109.074219 C 25.082031 109.074219 25.007812 109.074219 25.007812 109.109375 C 24.898438 109.148438 24.898438 109.183594 25.046875 109.183594 L 27.210938 109.183594 C 32.125 108.925781 36.96875 108.746094 41.847656 108.5625 C 48.269531 108.34375 54.578125 107.976562 62.464844 107.828125 C 72.699219 107.683594 82.898438 107.71875 93.132812 108.011719 C 98.929688 108.160156 104.765625 108.488281 110.5625 108.707031 C 114.191406 108.855469 117.789062 109.035156 121.417969 109.148438 L 124.976562 109.257812 C 124.976562 109.328125 124.976562 109.328125 124.941406 109.292969 C 124.976562 109.292969 124.976562 109.292969 124.941406 109.292969 C 124.976562 109.292969 124.976562 109.292969 124.941406 109.292969 Z M 124.941406 109.292969 " fill-opacity="1" fill-rule="nonzero"/></g><g fill="#545454" fill-opacity="1"><g transform="translate(14.268461, 67.338768)"><g><path d="M 0.859375 -7.453125 L 1.625 -7.28125 L 0.296875 -1.359375 L -8.0625 -3.21875 L -6.78125 -8.953125 L -6.015625 -8.78125 L -7.09375 -3.921875 L -4.125 -3.265625 L -3.15625 -7.609375 L -2.40625 -7.4375 L -3.375 -3.09375 L -0.265625 -2.40625 Z M 0.859375 -7.453125 "/></g></g></g><g fill="#545454" fill-opacity="1"><g transform="translate(17.096134, 55.895527)"><g><path d="M -7.21875 -4.8125 L -5.78125 -7.984375 C -5.394531 -8.804688 -4.890625 -9.457031 -4.265625 -9.9375 C -3.648438 -10.414062 -2.96875 -10.695312 -2.21875 -10.78125 C -1.476562 -10.863281 -0.726562 -10.734375 0.03125 -10.390625 C 0.78125 -10.046875 1.367188 -9.5625 1.796875 -8.9375 C 2.234375 -8.320312 2.472656 -7.625 2.515625 -6.84375 C 2.566406 -6.0625 2.398438 -5.257812 2.015625 -4.4375 L 0.578125 -1.265625 Z M 1.296875 -4.71875 C 1.609375 -5.40625 1.742188 -6.0625 1.703125 -6.6875 C 1.671875 -7.320312 1.476562 -7.890625 1.125 -8.390625 C 0.78125 -8.890625 0.296875 -9.285156 -0.328125 -9.578125 C -0.953125 -9.859375 -1.566406 -9.96875 -2.171875 -9.90625 C -2.785156 -9.84375 -3.34375 -9.617188 -3.84375 -9.234375 C -4.351562 -8.847656 -4.765625 -8.3125 -5.078125 -7.625 L -6.125 -5.328125 L 0.25 -2.421875 Z M 1.296875 -4.71875 "/></g></g></g><g fill="#545454" fill-opacity="1"><g transform="translate(23.35671, 43.619788)"><g><path d="M -6.28125 -5.984375 L -5.765625 -6.734375 L 1.296875 -1.890625 L 0.78125 -1.140625 Z M -6.28125 -5.984375 "/></g></g></g><g fill="#545454" fill-opacity="1"><g transform="translate(27.694256, 37.550336)"><g><path d="M 2.640625 -2.6875 C 2.203125 -2.21875 1.707031 -1.835938 1.15625 -1.546875 C 0.601562 -1.265625 0.09375 -1.128906 -0.375 -1.140625 L -0.625 -1.875 C -0.1875 -1.882812 0.273438 -2.007812 0.765625 -2.25 C 1.253906 -2.5 1.6875 -2.820312 2.0625 -3.21875 C 2.582031 -3.78125 2.875 -4.296875 2.9375 -4.765625 C 3 -5.234375 2.867188 -5.617188 2.546875 -5.921875 C 2.296875 -6.160156 2.023438 -6.273438 1.734375 -6.265625 C 1.441406 -6.253906 1.148438 -6.175781 0.859375 -6.03125 C 0.578125 -5.882812 0.203125 -5.65625 -0.265625 -5.34375 C -0.816406 -4.988281 -1.28125 -4.722656 -1.65625 -4.546875 C -2.03125 -4.378906 -2.425781 -4.300781 -2.84375 -4.3125 C -3.257812 -4.320312 -3.660156 -4.507812 -4.046875 -4.875 C -4.359375 -5.164062 -4.566406 -5.515625 -4.671875 -5.921875 C -4.773438 -6.335938 -4.738281 -6.789062 -4.5625 -7.28125 C -4.382812 -7.78125 -4.054688 -8.28125 -3.578125 -8.78125 C -3.242188 -9.144531 -2.867188 -9.445312 -2.453125 -9.6875 C -2.035156 -9.9375 -1.625 -10.109375 -1.21875 -10.203125 L -0.890625 -9.484375 C -1.316406 -9.390625 -1.707031 -9.234375 -2.0625 -9.015625 C -2.425781 -8.796875 -2.742188 -8.539062 -3.015625 -8.25 C -3.535156 -7.707031 -3.820312 -7.195312 -3.875 -6.71875 C -3.925781 -6.25 -3.785156 -5.859375 -3.453125 -5.546875 C -3.203125 -5.304688 -2.925781 -5.191406 -2.625 -5.203125 C -2.332031 -5.210938 -2.039062 -5.296875 -1.75 -5.453125 C -1.457031 -5.609375 -1.082031 -5.832031 -0.625 -6.125 C -0.0703125 -6.476562 0.382812 -6.742188 0.75 -6.921875 C 1.125 -7.097656 1.515625 -7.179688 1.921875 -7.171875 C 2.335938 -7.160156 2.734375 -6.972656 3.109375 -6.609375 C 3.429688 -6.316406 3.640625 -5.960938 3.734375 -5.546875 C 3.835938 -5.128906 3.800781 -4.675781 3.625 -4.1875 C 3.445312 -3.695312 3.117188 -3.195312 2.640625 -2.6875 Z M 2.640625 -2.6875 "/></g></g></g><g fill="#545454" fill-opacity="1"><g transform="translate(35.500139, 29.604529)"><g><path d="M 4.265625 -2.875 C 3.554688 -2.394531 2.8125 -2.113281 2.03125 -2.03125 C 1.25 -1.945312 0.515625 -2.0625 -0.171875 -2.375 C -0.867188 -2.695312 -1.453125 -3.195312 -1.921875 -3.875 C -2.390625 -4.539062 -2.65625 -5.253906 -2.71875 -6.015625 C -2.789062 -6.785156 -2.65625 -7.523438 -2.3125 -8.234375 C -1.96875 -8.941406 -1.441406 -9.535156 -0.734375 -10.015625 C -0.046875 -10.503906 0.679688 -10.789062 1.453125 -10.875 C 2.222656 -10.957031 2.960938 -10.835938 3.671875 -10.515625 C 4.378906 -10.191406 4.96875 -9.695312 5.4375 -9.03125 C 5.90625 -8.351562 6.171875 -7.628906 6.234375 -6.859375 C 6.296875 -6.085938 6.15625 -5.351562 5.8125 -4.65625 C 5.46875 -3.957031 4.953125 -3.363281 4.265625 -2.875 Z M 3.796875 -3.546875 C 4.347656 -3.941406 4.757812 -4.421875 5.03125 -4.984375 C 5.300781 -5.546875 5.40625 -6.132812 5.34375 -6.75 C 5.289062 -7.375 5.070312 -7.960938 4.6875 -8.515625 C 4.300781 -9.054688 3.828125 -9.457031 3.265625 -9.71875 C 2.710938 -9.988281 2.125 -10.09375 1.5 -10.03125 C 0.875 -9.976562 0.285156 -9.753906 -0.265625 -9.359375 C -0.828125 -8.972656 -1.242188 -8.492188 -1.515625 -7.921875 C -1.796875 -7.359375 -1.910156 -6.765625 -1.859375 -6.140625 C -1.804688 -5.515625 -1.585938 -4.929688 -1.203125 -4.390625 C -0.816406 -3.835938 -0.34375 -3.429688 0.21875 -3.171875 C 0.78125 -2.910156 1.375 -2.8125 2 -2.875 C 2.632812 -2.9375 3.234375 -3.160156 3.796875 -3.546875 Z M 3.796875 -3.546875 "/></g></g></g><g fill="#545454" fill-opacity="1"><g transform="translate(47.055249, 22.035124)"><g><path d="M 4.703125 -11.15625 L 7.921875 -3.21875 L 7.234375 -2.9375 L -0.5 -7.296875 L 2.125 -0.859375 L 1.28125 -0.53125 L -1.9375 -8.46875 L -1.234375 -8.75 L 6.484375 -4.375 L 3.875 -10.828125 Z M 4.703125 -11.15625 "/></g></g></g><g fill="#545454" fill-opacity="1"><g transform="translate(59.901986, 17.456028)"><g/></g></g><g fill="#545454" fill-opacity="1"><g transform="translate(66.67211, 15.978281)"><g><path d="M 5.140625 -0.15625 C 4.285156 -0.113281 3.503906 -0.265625 2.796875 -0.609375 C 2.097656 -0.960938 1.539062 -1.460938 1.125 -2.109375 C 0.707031 -2.753906 0.476562 -3.488281 0.4375 -4.3125 C 0.40625 -5.132812 0.566406 -5.878906 0.921875 -6.546875 C 1.273438 -7.222656 1.785156 -7.765625 2.453125 -8.171875 C 3.128906 -8.585938 3.894531 -8.816406 4.75 -8.859375 C 5.59375 -8.898438 6.359375 -8.75 7.046875 -8.40625 C 7.742188 -8.0625 8.300781 -7.566406 8.71875 -6.921875 C 9.144531 -6.273438 9.375 -5.539062 9.40625 -4.71875 C 9.445312 -3.894531 9.285156 -3.140625 8.921875 -2.453125 C 8.566406 -1.773438 8.054688 -1.234375 7.390625 -0.828125 C 6.734375 -0.421875 5.984375 -0.195312 5.140625 -0.15625 Z M 5.109375 -0.96875 C 5.785156 -1 6.382812 -1.179688 6.90625 -1.515625 C 7.4375 -1.847656 7.84375 -2.289062 8.125 -2.84375 C 8.40625 -3.40625 8.53125 -4.019531 8.5 -4.6875 C 8.46875 -5.351562 8.285156 -5.945312 7.953125 -6.46875 C 7.628906 -7 7.1875 -7.398438 6.625 -7.671875 C 6.070312 -7.953125 5.457031 -8.078125 4.78125 -8.046875 C 4.101562 -8.015625 3.492188 -7.832031 2.953125 -7.5 C 2.421875 -7.175781 2.007812 -6.734375 1.71875 -6.171875 C 1.425781 -5.617188 1.296875 -5.007812 1.328125 -4.34375 C 1.359375 -3.675781 1.539062 -3.078125 1.875 -2.546875 C 2.21875 -2.023438 2.671875 -1.625 3.234375 -1.34375 C 3.804688 -1.0625 4.429688 -0.9375 5.109375 -0.96875 Z M 5.109375 -0.96875 "/></g></g></g><g fill="#545454" fill-opacity="1"><g transform="translate(80.534791, 15.862256)"><g><path d="M 2.71875 -8.234375 L 3.609375 -8.09375 L 2.390625 -0.40625 L 7.125 0.34375 L 7 1.109375 L 1.375 0.21875 Z M 2.71875 -8.234375 "/></g></g></g><g fill="#545454" fill-opacity="1"><g transform="translate(91.288585, 17.982461)"><g><path d="M 3.921875 -7.734375 L 4.78125 -7.453125 L 2.1875 0.703125 L 1.328125 0.421875 Z M 3.921875 -7.734375 "/></g></g></g><g fill="#545454" fill-opacity="1"><g transform="translate(98.34348, 20.339967)"><g><path d="M 11.46875 -3.78125 L 4.203125 2.140625 L 3.40625 1.734375 L 3.90625 -7.625 L 4.78125 -7.1875 L 4.34375 0.9375 L 10.640625 -4.203125 Z M 11.46875 -3.78125 "/></g></g></g><g fill="#545454" fill-opacity="1"><g transform="translate(109.017105, 26.176487)"><g><path d="M 6.34375 4 L 5.859375 4.609375 L 1.09375 0.859375 L 6.390625 -5.875 L 11.015625 -2.25 L 10.53125 -1.625 L 6.625 -4.6875 L 4.734375 -2.296875 L 8.21875 0.4375 L 7.75 1.03125 L 4.265625 -1.703125 L 2.296875 0.8125 Z M 6.34375 4 "/></g></g></g><g fill="#545454" fill-opacity="1"><g transform="translate(118.090725, 33.733369)"><g><path d="M 4.703125 5.515625 L 5.515625 2.234375 C 5.347656 2.078125 5.191406 1.910156 5.046875 1.734375 L 3.546875 -0.015625 L 1.484375 1.75 L 0.90625 1.0625 L 7.421875 -4.484375 L 9.5 -2.046875 C 10.207031 -1.210938 10.5625 -0.394531 10.5625 0.40625 C 10.570312 1.21875 10.226562 1.921875 9.53125 2.515625 C 9.019531 2.941406 8.476562 3.175781 7.90625 3.21875 C 7.34375 3.269531 6.78125 3.117188 6.21875 2.765625 L 5.34375 6.265625 Z M 5.625 1.21875 C 6.164062 1.863281 6.722656 2.234375 7.296875 2.328125 C 7.878906 2.429688 8.425781 2.265625 8.9375 1.828125 C 9.46875 1.367188 9.726562 0.847656 9.71875 0.265625 C 9.707031 -0.304688 9.429688 -0.914062 8.890625 -1.5625 L 7.40625 -3.296875 L 4.140625 -0.515625 Z M 5.625 1.21875 "/></g></g></g><g fill="#545454" fill-opacity="1"><g transform="translate(125.90838, 43.391405)"><g><path d="M 2.359375 4.5625 C 1.953125 3.8125 1.753906 3.039062 1.765625 2.25 C 1.773438 1.46875 1.976562 0.75 2.375 0.09375 C 2.78125 -0.550781 3.347656 -1.066406 4.078125 -1.453125 C 4.796875 -1.835938 5.539062 -2.015625 6.3125 -1.984375 C 7.082031 -1.960938 7.796875 -1.734375 8.453125 -1.296875 C 9.109375 -0.867188 9.640625 -0.28125 10.046875 0.46875 C 10.441406 1.21875 10.632812 1.976562 10.625 2.75 C 10.613281 3.53125 10.40625 4.25 10 4.90625 C 9.59375 5.570312 9.03125 6.097656 8.3125 6.484375 C 7.582031 6.867188 6.832031 7.039062 6.0625 7 C 5.289062 6.96875 4.578125 6.738281 3.921875 6.3125 C 3.273438 5.894531 2.753906 5.3125 2.359375 4.5625 Z M 3.0625 4.1875 C 3.375 4.789062 3.796875 5.257812 4.328125 5.59375 C 4.867188 5.925781 5.445312 6.097656 6.0625 6.109375 C 6.6875 6.128906 7.296875 5.984375 7.890625 5.671875 C 8.472656 5.359375 8.929688 4.9375 9.265625 4.40625 C 9.597656 3.882812 9.769531 3.3125 9.78125 2.6875 C 9.789062 2.0625 9.640625 1.445312 9.328125 0.84375 C 9.003906 0.25 8.578125 -0.21875 8.046875 -0.5625 C 7.515625 -0.90625 6.9375 -1.085938 6.3125 -1.109375 C 5.6875 -1.128906 5.082031 -0.984375 4.5 -0.671875 C 3.90625 -0.359375 3.441406 0.0625 3.109375 0.59375 C 2.785156 1.125 2.613281 1.707031 2.59375 2.34375 C 2.582031 2.976562 2.738281 3.59375 3.0625 4.1875 Z M 3.0625 4.1875 "/></g></g></g><g fill="#545454" fill-opacity="1"><g transform="translate(131.971926, 55.853017)"><g><path d="M 0.96875 3.609375 C 0.789062 3.003906 0.71875 2.390625 0.75 1.765625 C 0.789062 1.148438 0.925781 0.648438 1.15625 0.265625 L 1.9375 0.421875 C 1.71875 0.785156 1.585938 1.238281 1.546875 1.78125 C 1.515625 2.332031 1.570312 2.867188 1.71875 3.390625 C 1.9375 4.128906 2.234375 4.644531 2.609375 4.9375 C 2.992188 5.226562 3.398438 5.3125 3.828125 5.1875 C 4.160156 5.09375 4.394531 4.914062 4.53125 4.65625 C 4.664062 4.40625 4.742188 4.117188 4.765625 3.796875 C 4.785156 3.472656 4.78125 3.035156 4.75 2.484375 C 4.71875 1.816406 4.722656 1.28125 4.765625 0.875 C 4.804688 0.46875 4.9375 0.0859375 5.15625 -0.265625 C 5.382812 -0.617188 5.75 -0.867188 6.25 -1.015625 C 6.664062 -1.140625 7.070312 -1.140625 7.46875 -1.015625 C 7.875 -0.898438 8.25 -0.640625 8.59375 -0.234375 C 8.9375 0.160156 9.207031 0.691406 9.40625 1.359375 C 9.539062 1.828125 9.609375 2.300781 9.609375 2.78125 C 9.609375 3.269531 9.546875 3.710938 9.421875 4.109375 L 8.640625 4.015625 C 8.765625 3.609375 8.820312 3.191406 8.8125 2.765625 C 8.8125 2.347656 8.757812 1.953125 8.65625 1.578125 C 8.445312 0.859375 8.148438 0.351562 7.765625 0.0625 C 7.378906 -0.21875 6.96875 -0.289062 6.53125 -0.15625 C 6.195312 -0.0625 5.957031 0.109375 5.8125 0.359375 C 5.675781 0.617188 5.597656 0.914062 5.578125 1.25 C 5.566406 1.582031 5.570312 2.019531 5.59375 2.5625 C 5.632812 3.21875 5.632812 3.75 5.59375 4.15625 C 5.550781 4.570312 5.421875 4.953125 5.203125 5.296875 C 4.984375 5.640625 4.625 5.882812 4.125 6.03125 C 3.707031 6.15625 3.296875 6.15625 2.890625 6.03125 C 2.484375 5.90625 2.113281 5.640625 1.78125 5.234375 C 1.445312 4.835938 1.175781 4.296875 0.96875 3.609375 Z M 0.96875 3.609375 "/></g></g></g><g fill="#545454" fill-opacity="1"><g transform="translate(134.715749, 66.793239)"><g/></g></g><g fill="#545454" fill-opacity="1"><g transform="translate(17.184471, 109.07827)"><g><path d="M 12 2.078125 L 5.03125 7.046875 L 4.3125 6.046875 L 7.421875 3.828125 L 4.578125 -0.171875 L 1.46875 2.046875 L 0.75 1.046875 L 7.71875 -3.921875 L 8.4375 -2.921875 L 5.4375 -0.78125 L 8.28125 3.21875 L 11.28125 1.078125 Z M 12 2.078125 "/></g></g></g><g fill="#545454" fill-opacity="1"><g transform="translate(28.555875, 123.074373)"><g><path d="M 6.5625 2.625 L 3.046875 -0.265625 L 0.96875 0.796875 L -0.015625 -0.015625 L 8.4375 -4.15625 L 9.375 -3.375 L 6.921875 5.703125 L 5.9375 4.890625 Z M 6.859375 1.609375 L 8.109375 -2.796875 L 4.015625 -0.734375 Z M 6.859375 1.609375 "/></g></g></g><g fill="#545454" fill-opacity="1"><g transform="translate(42.329753, 133.09384)"><g><path d="M 6.359375 2.96875 L 5.78125 -0.203125 C 5.582031 -0.285156 5.421875 -0.351562 5.296875 -0.40625 L 3.390625 -1.296875 L 2.28125 1.0625 L 1.15625 0.546875 L 4.765625 -7.21875 L 7.796875 -5.8125 C 8.796875 -5.34375 9.472656 -4.726562 9.828125 -3.96875 C 10.191406 -3.21875 10.179688 -2.425781 9.796875 -1.59375 C 9.515625 -0.988281 9.125 -0.546875 8.625 -0.265625 C 8.132812 0.015625 7.570312 0.125 6.9375 0.0625 L 7.5625 3.53125 Z M 5.6875 -1.359375 C 6.394531 -1.035156 7.003906 -0.941406 7.515625 -1.078125 C 8.023438 -1.210938 8.410156 -1.5625 8.671875 -2.125 C 8.929688 -2.6875 8.945312 -3.203125 8.71875 -3.671875 C 8.5 -4.140625 8.035156 -4.535156 7.328125 -4.859375 L 5.453125 -5.734375 L 3.8125 -2.234375 Z M 5.6875 -1.359375 "/></g></g></g><g fill="#545454" fill-opacity="1"><g transform="translate(58.137501, 139.370935)"><g><path d="M 2.75 -8.21875 L 6.296875 -7.59375 C 7.191406 -7.4375 7.953125 -7.117188 8.578125 -6.640625 C 9.210938 -6.171875 9.660156 -5.582031 9.921875 -4.875 C 10.191406 -4.175781 10.253906 -3.410156 10.109375 -2.578125 C 9.960938 -1.742188 9.644531 -1.039062 9.15625 -0.46875 C 8.664062 0.09375 8.039062 0.488281 7.28125 0.71875 C 6.53125 0.957031 5.707031 1 4.8125 0.84375 L 1.265625 0.21875 Z M 4.9375 -0.21875 C 5.613281 -0.09375 6.234375 -0.117188 6.796875 -0.296875 C 7.367188 -0.472656 7.835938 -0.773438 8.203125 -1.203125 C 8.566406 -1.628906 8.800781 -2.15625 8.90625 -2.78125 C 9.019531 -3.40625 8.976562 -3.984375 8.78125 -4.515625 C 8.582031 -5.046875 8.242188 -5.488281 7.765625 -5.84375 C 7.296875 -6.195312 6.722656 -6.4375 6.046875 -6.5625 L 3.78125 -6.953125 L 2.671875 -0.609375 Z M 4.9375 -0.21875 "/></g></g></g><g fill="#545454" fill-opacity="1"><g transform="translate(76.373358, 141.584752)"><g><path d="M 12.203125 -10.1875 L 10.4375 -1.328125 L 9.15625 -1.171875 L 5.984375 -7.65625 L 4.53125 -0.578125 L 3.21875 -0.40625 L -0.6875 -8.546875 L 0.5625 -8.703125 L 3.734375 -2.09375 L 5.25 -9.3125 L 6.359375 -9.453125 L 9.578125 -2.796875 L 11.046875 -10.046875 Z M 12.203125 -10.1875 "/></g></g></g><g fill="#545454" fill-opacity="1"><g transform="translate(97.893668, 137.283892)"><g><path d="M 5.28125 -4.6875 L 1.125 -2.84375 L 1.140625 -0.5 L -0.015625 0 L 0.046875 -9.390625 L 1.15625 -9.890625 L 8.203125 -3.640625 L 7.03125 -3.125 Z M 4.5 -5.421875 L 1.109375 -8.5 L 1.140625 -3.921875 Z M 4.5 -5.421875 "/></g></g></g><g fill="#545454" fill-opacity="1"><g transform="translate(113.012096, 129.438809)"><g><path d="M 5.484375 -4.359375 L 2.390625 -5.265625 C 2.234375 -5.117188 2.101562 -5.003906 2 -4.921875 L 0.34375 -3.609375 L 1.96875 -1.5625 L 1 -0.796875 L -4.328125 -7.5 L -1.703125 -9.578125 C -0.835938 -10.265625 0.00390625 -10.597656 0.828125 -10.578125 C 1.660156 -10.566406 2.367188 -10.195312 2.953125 -9.46875 C 3.359375 -8.957031 3.578125 -8.414062 3.609375 -7.84375 C 3.648438 -7.269531 3.492188 -6.710938 3.140625 -6.171875 L 6.53125 -5.1875 Z M 1.328125 -5.703125 C 1.929688 -6.179688 2.285156 -6.679688 2.390625 -7.203125 C 2.503906 -7.722656 2.367188 -8.222656 1.984375 -8.703125 C 1.597656 -9.191406 1.140625 -9.4375 0.609375 -9.4375 C 0.0859375 -9.445312 -0.472656 -9.210938 -1.078125 -8.734375 L -2.703125 -7.4375 L -0.296875 -4.40625 Z M 1.328125 -5.703125 "/></g></g></g><g fill="#545454" fill-opacity="1"><g transform="translate(125.606608, 118.095308)"><g><path d="M 3.703125 -6.609375 L 4.546875 -5.96875 L 0.78125 -1.015625 L -6.03125 -6.203125 L -2.375 -11.015625 L -1.53125 -10.375 L -4.4375 -6.546875 L -2.34375 -4.953125 L 0.25 -8.359375 L 1.078125 -7.734375 L -1.515625 -4.328125 L 0.6875 -2.640625 Z M 3.703125 -6.609375 "/></g></g></g></svg>